<svg width="180" height="98" viewBox="0 0 180 98" fill="none" xmlns="http://www.w3.org/2000/svg">
<g filter="url(#filter0_d_0_2220)">
<path d="M5 40.8549L7.57576 41.75C10.1515 42.6452 15.303 44.4355 20.4545 49.4013C25.6061 54.3671 30.7576 62.5085 35.9091 59.1564C41.0606 55.8042 46.2121 40.9586 51.3636 37.7312C56.5152 34.5037 61.6667 42.8946 66.8182 44.7858C71.9697 46.6771 77.1212 42.0689 82.2727 48.0088C87.4242 53.9487 92.5758 70.4367 97.7273 71.6287C102.879 72.8207 108.03 43.1278 113.182 40.8549C118.333 38.582 123.485 63.729 128.636 71.9161C133.788 80.1033 138.939 86.9193 144.091 80.3936C149.242 73.868 154.394 54.0006 159.545 46.4507C164.697 38.9007 169.848 43.6682 172.424 46.052L175 48.4357" stroke="#24272E" stroke-width="2" stroke-linecap="round"/>
</g>
<circle cx="114" cy="43" r="5" fill="#F0E714" stroke="black" stroke-width="3"/>
<g filter="url(#filter1_d_0_2220)">
<path fill-rule="evenodd" clip-rule="evenodd" d="M112 8C110.343 8 109 9.34315 109 11V26.2464C109 27.9033 110.343 29.2464 112 29.2464H112.432L113.647 33.7812C113.687 33.9299 113.873 33.9797 113.982 33.8708L118.606 29.2464H145.224C146.881 29.2464 148.224 27.9033 148.224 26.2464V11C148.224 9.34315 146.881 8 145.224 8H112Z" fill="#F0E714"/>
</g>
<path d="M115.761 21.5425V19.4415H113.66V18.633H115.761V16.5375H116.57V18.633H118.665V19.4415H116.57V21.5425H115.761ZM122.416 23.168C121.988 23.168 121.59 23.09 121.222 22.934C120.854 22.774 120.536 22.55 120.268 22.262C120.004 21.97 119.81 21.624 119.686 21.224L120.712 20.93C120.844 21.33 121.064 21.634 121.372 21.842C121.68 22.05 122.026 22.152 122.41 22.148C122.762 22.14 123.066 22.06 123.322 21.908C123.582 21.752 123.782 21.54 123.922 21.272C124.066 21.004 124.138 20.694 124.138 20.342C124.138 19.806 123.978 19.372 123.658 19.04C123.338 18.704 122.918 18.536 122.398 18.536C122.254 18.536 122.102 18.556 121.942 18.596C121.786 18.636 121.64 18.692 121.504 18.764L120.988 17.918L124.192 15.02L124.33 15.38H120.028V14.36H125.122V15.386L122.392 18.002L122.38 17.624C122.952 17.584 123.452 17.678 123.88 17.906C124.308 18.134 124.64 18.46 124.876 18.884C125.116 19.308 125.236 19.794 125.236 20.342C125.236 20.894 125.112 21.382 124.864 21.806C124.616 22.23 124.28 22.564 123.856 22.808C123.432 23.048 122.952 23.168 122.416 23.168ZM129.58 23.18C129.02 23.18 128.52 23.054 128.08 22.802C127.644 22.546 127.298 22.2 127.042 21.764C126.79 21.324 126.664 20.824 126.664 20.264V17.096C126.664 16.536 126.79 16.036 127.042 15.596C127.298 15.156 127.644 14.81 128.08 14.558C128.52 14.306 129.02 14.18 129.58 14.18C130.14 14.18 130.64 14.306 131.08 14.558C131.52 14.81 131.866 15.156 132.118 15.596C132.37 16.036 132.496 16.536 132.496 17.096V20.264C132.496 20.824 132.37 21.324 132.118 21.764C131.866 22.2 131.52 22.546 131.08 22.802C130.64 23.054 130.14 23.18 129.58 23.18ZM129.58 22.154C129.92 22.154 130.228 22.072 130.504 21.908C130.78 21.744 131 21.524 131.164 21.248C131.328 20.968 131.41 20.66 131.41 20.324V17.03C131.41 16.69 131.328 16.382 131.164 16.106C131 15.83 130.78 15.61 130.504 15.446C130.228 15.282 129.92 15.2 129.58 15.2C129.244 15.2 128.936 15.282 128.656 15.446C128.38 15.61 128.16 15.83 127.996 16.106C127.832 16.382 127.75 16.69 127.75 17.03V20.324C127.75 20.66 127.832 20.968 127.996 21.248C128.16 21.524 128.38 21.744 128.656 21.908C128.936 22.072 129.244 22.154 129.58 22.154ZM134.854 23L134.194 22.34L141.465 15.08L142.125 15.74L134.854 23ZM140.475 23.165C140.112 23.165 139.78 23.077 139.479 22.901C139.182 22.7213 138.944 22.483 138.764 22.186C138.585 21.8853 138.495 21.5517 138.495 21.185C138.495 20.8257 138.587 20.4957 138.77 20.195C138.953 19.8943 139.195 19.6542 139.496 19.4745C139.797 19.2948 140.123 19.205 140.475 19.205C140.838 19.205 141.17 19.2948 141.47 19.4745C141.771 19.6505 142.009 19.8888 142.185 20.1895C142.365 20.4865 142.455 20.8183 142.455 21.185C142.455 21.5517 142.365 21.8853 142.185 22.186C142.009 22.483 141.771 22.7213 141.47 22.901C141.17 23.077 140.838 23.165 140.475 23.165ZM140.475 22.3015C140.677 22.3015 140.862 22.2502 141.03 22.1475C141.203 22.0448 141.338 21.9092 141.437 21.7405C141.54 21.5718 141.591 21.3867 141.591 21.185C141.591 20.9833 141.54 20.7982 141.437 20.6295C141.338 20.4572 141.203 20.3215 141.03 20.2225C140.862 20.1198 140.677 20.0685 140.475 20.0685C140.273 20.0685 140.088 20.1198 139.919 20.2225C139.751 20.3215 139.615 20.4572 139.512 20.6295C139.41 20.7982 139.358 20.9833 139.358 21.185C139.358 21.3867 139.41 21.5718 139.512 21.7405C139.615 21.9092 139.751 22.0448 139.919 22.1475C140.088 22.2502 140.273 22.3015 140.475 22.3015ZM135.844 18.875C135.481 18.875 135.149 18.787 134.848 18.611C134.548 18.4313 134.308 18.193 134.128 17.896C133.952 17.5953 133.864 17.2617 133.864 16.895C133.864 16.5357 133.956 16.2057 134.139 15.905C134.322 15.6043 134.564 15.3642 134.865 15.1845C135.166 15.0048 135.492 14.915 135.844 14.915C136.207 14.915 136.537 15.0048 136.834 15.1845C137.135 15.3605 137.375 15.5988 137.554 15.8995C137.734 16.1965 137.824 16.5283 137.824 16.895C137.824 17.2617 137.734 17.5953 137.554 17.896C137.375 18.193 137.135 18.4313 136.834 18.611C136.537 18.787 136.207 18.875 135.844 18.875ZM135.844 18.0115C136.046 18.0115 136.231 17.9602 136.399 17.8575C136.572 17.7548 136.707 17.6192 136.806 17.4505C136.909 17.2818 136.96 17.0967 136.96 16.895C136.96 16.6933 136.909 16.5082 136.806 16.3395C136.707 16.1672 136.572 16.0315 136.399 15.9325C136.231 15.8298 136.046 15.7785 135.844 15.7785C135.642 15.7785 135.457 15.8298 135.288 15.9325C135.12 16.0315 134.984 16.1672 134.881 16.3395C134.779 16.5082 134.727 16.6933 134.727 16.895C134.727 17.0967 134.779 17.2818 134.881 17.4505C134.984 17.6192 135.12 17.7548 135.288 17.8575C135.457 17.9602 135.642 18.0115 135.844 18.0115Z" fill="#101C26"/>
<defs>
<filter id="filter0_d_0_2220" x="-0.000274658" y="36.0002" width="180" height="62" filterUnits="userSpaceOnUse" color-interpolation-filters="sRGB">
<feFlood flood-opacity="0" result="BackgroundImageFix"/>
<feColorMatrix in="SourceAlpha" type="matrix" values="0 0 0 0 0 0 0 0 0 0 0 0 0 0 0 0 0 0 127 0" result="hardAlpha"/>
<feOffset dy="10"/>
<feGaussianBlur stdDeviation="2"/>
<feComposite in2="hardAlpha" operator="out"/>
<feColorMatrix type="matrix" values="0 0 0 0 0 0 0 0 0 0 0 0 0 0 0 0 0 0 0.11 0"/>
<feBlend mode="normal" in2="BackgroundImageFix" result="effect1_dropShadow_0_2220"/>
<feBlend mode="normal" in="SourceGraphic" in2="effect1_dropShadow_0_2220" result="shape"/>
</filter>
<filter id="filter1_d_0_2220" x="100" y="0" width="57.2242" height="43.9294" filterUnits="userSpaceOnUse" color-interpolation-filters="sRGB">
<feFlood flood-opacity="0" result="BackgroundImageFix"/>
<feColorMatrix in="SourceAlpha" type="matrix" values="0 0 0 0 0 0 0 0 0 0 0 0 0 0 0 0 0 0 127 0" result="hardAlpha"/>
<feOffset dy="1"/>
<feGaussianBlur stdDeviation="4.5"/>
<feComposite in2="hardAlpha" operator="out"/>
<feColorMatrix type="matrix" values="0 0 0 0 0.0980392 0 0 0 0 0.482353 0 0 0 0 1 0 0 0 0.17 0"/>
<feBlend mode="normal" in2="BackgroundImageFix" result="effect1_dropShadow_0_2220"/>
<feBlend mode="normal" in="SourceGraphic" in2="effect1_dropShadow_0_2220" result="shape"/>
</filter>
</defs>
</svg>
