<svg width="10" height="12" viewBox="0 0 10 12" fill="none" xmlns="http://www.w3.org/2000/svg">
<path d="M4.9987 11.9999C4.15666 11.2816 3.37616 10.4942 2.66537 9.6459C1.5987 8.3719 0.332032 6.47457 0.332032 4.66656C0.331569 3.74321 0.605037 2.84046 1.11783 2.07258C1.63062 1.3047 2.35968 0.706204 3.21274 0.35283C4.06581 -0.000543594 5.00453 -0.092908 5.91011 0.0874264C6.81569 0.267761 7.64742 0.712687 8.30003 1.3659C8.73454 1.79847 9.07893 2.31292 9.31329 2.87948C9.54765 3.44604 9.66732 4.05345 9.66537 4.66656C9.66537 6.47457 8.3987 8.3719 7.33203 9.6459C6.62123 10.4942 5.84074 11.2816 4.9987 11.9999ZM4.9987 2.66657C4.46827 2.66657 3.95956 2.87728 3.58448 3.25235C3.20941 3.62742 2.9987 4.13613 2.9987 4.66656C2.9987 5.197 3.20941 5.70571 3.58448 6.08078C3.95956 6.45585 4.46827 6.66656 4.9987 6.66656C5.52913 6.66656 6.03784 6.45585 6.41291 6.08078C6.78799 5.70571 6.9987 5.197 6.9987 4.66656C6.9987 4.13613 6.78799 3.62742 6.41291 3.25235C6.03784 2.87728 5.52913 2.66657 4.9987 2.66657Z" fill="#101C26"/>
</svg>
