<svg width="26" height="26" viewBox="0 0 26 26" fill="none" xmlns="http://www.w3.org/2000/svg">
<path d="M22.7563 18.8719C21.9741 18.0891 21.0601 17.4501 20.0563 16.9844C21.4719 15.8375 22.375 14.0875 22.375 12.125C22.375 8.6625 19.4875 5.82188 16.025 5.875C12.6156 5.92813 9.86877 8.70625 9.86877 12.125C9.86877 14.0875 10.775 15.8375 12.1875 16.9844C11.1835 17.4498 10.2695 18.0888 9.48752 18.8719C7.78127 20.5813 6.81252 22.8375 6.75002 25.2437C6.74918 25.2771 6.75503 25.3103 6.76722 25.3413C6.77941 25.3724 6.79769 25.4007 6.82099 25.4246C6.84429 25.4485 6.87213 25.4674 6.90288 25.4804C6.93363 25.4933 6.96665 25.5 7.00002 25.5H8.75002C8.88439 25.5 8.99689 25.3937 9.00002 25.2594C9.05939 23.4469 9.79377 21.75 11.0844 20.4625C11.7448 19.7986 12.5304 19.2722 13.3956 18.9139C14.2608 18.5555 15.1885 18.3724 16.125 18.375C18.0281 18.375 19.8188 19.1156 21.1656 20.4625C22.4531 21.75 23.1875 23.4469 23.25 25.2594C23.2531 25.3937 23.3656 25.5 23.5 25.5H25.25C25.2834 25.5 25.3164 25.4933 25.3472 25.4804C25.3779 25.4674 25.4057 25.4485 25.429 25.4246C25.4523 25.4007 25.4706 25.3724 25.4828 25.3413C25.495 25.3103 25.5009 25.2771 25.5 25.2437C25.4375 22.8375 24.4688 20.5813 22.7563 18.8719ZM16.125 16.125C15.0563 16.125 14.05 15.7094 13.2969 14.9531C12.9189 14.5781 12.6204 14.1309 12.419 13.638C12.2177 13.1451 12.1177 12.6167 12.125 12.0844C12.1344 11.0594 12.5438 10.0688 13.2594 9.33438C14.0094 8.56563 15.0125 8.1375 16.0844 8.125C17.1438 8.11563 18.1719 8.52813 18.9281 9.26875C19.7031 10.0281 20.1281 11.0438 20.1281 12.125C20.1281 13.1938 19.7125 14.1969 18.9563 14.9531C18.5852 15.3259 18.144 15.6214 17.658 15.8226C17.172 16.0237 16.651 16.1265 16.125 16.125ZM8.29689 12.95C8.26877 12.6781 8.25314 12.4031 8.25314 12.125C8.25314 11.6281 8.30002 11.1438 8.38752 10.6719C8.40939 10.5594 8.35002 10.4438 8.24689 10.3969C7.82189 10.2063 7.43127 9.94375 7.09377 9.6125C6.69608 9.2269 6.38314 8.76263 6.17491 8.24932C5.96668 7.73601 5.86774 7.18494 5.88439 6.63125C5.91252 5.62813 6.31564 4.675 7.01877 3.95625C7.79064 3.16563 8.82814 2.73438 9.93127 2.74688C10.9281 2.75625 11.8906 3.14063 12.6188 3.82188C12.8656 4.05313 13.0781 4.30938 13.2563 4.58438C13.3188 4.68125 13.4406 4.72188 13.5469 4.68438C14.0969 4.49375 14.6781 4.35938 15.275 4.29688C15.45 4.27813 15.55 4.09063 15.4719 3.93438C14.4563 1.925 12.3813 0.537501 9.98127 0.500001C6.51564 0.446876 3.62814 3.2875 3.62814 6.74688C3.62814 8.70938 4.53127 10.4594 5.94689 11.6063C4.95314 12.0656 4.03752 12.7 3.24377 13.4938C1.53127 15.2031 0.562517 17.4594 0.500017 19.8687C0.499183 19.9021 0.505033 19.9353 0.517223 19.9663C0.529413 19.9974 0.547695 20.0257 0.570993 20.0496C0.594292 20.0735 0.622134 20.0924 0.65288 20.1054C0.683626 20.1183 0.716654 20.125 0.750017 20.125H2.50314C2.63752 20.125 2.75002 20.0187 2.75314 19.8844C2.81252 18.0719 3.54689 16.375 4.83752 15.0875C5.75627 14.1688 6.88127 13.5312 8.10939 13.2219C8.23127 13.1906 8.31252 13.075 8.29689 12.95Z" fill="#F0E714"/>
</svg>
