<svg width="28" height="28" viewBox="0 0 28 28" fill="none" xmlns="http://www.w3.org/2000/svg">
<path d="M14.0003 0.666504C6.64833 0.666504 0.666992 6.64784 0.666992 13.9998V19.5238C0.666992 20.8892 1.86299 21.9998 3.33366 21.9998H4.66699C5.02061 21.9998 5.35975 21.8594 5.6098 21.6093C5.85985 21.3593 6.00033 21.0201 6.00033 20.6665V13.8092C6.00033 13.4555 5.85985 13.1164 5.6098 12.8664C5.35975 12.6163 5.02061 12.4758 4.66699 12.4758H3.45633C4.19766 7.31584 8.63766 3.33317 14.0003 3.33317C19.363 3.33317 23.803 7.31584 24.5443 12.4758H23.3337C22.98 12.4758 22.6409 12.6163 22.3908 12.8664C22.1408 13.1164 22.0003 13.4555 22.0003 13.8092V21.9998C22.0003 23.4705 20.8043 24.6665 19.3337 24.6665H16.667V23.3332H11.3337V27.3332H19.3337C22.275 27.3332 24.667 24.9412 24.667 21.9998C26.1377 21.9998 27.3337 20.8892 27.3337 19.5238V13.9998C27.3337 6.64784 21.3523 0.666504 14.0003 0.666504Z" fill="#F0E714"/>
</svg>
